# xmcd
#
# Track frame offsets:
# 150
# 11221
# 21469
# 33329
# 42557
# 56594
# 69395
# 80276
# 95495
# 107315
# 117318
# 129476
# 140421
#
# Disc length: 2022 seconds
#
#
# Revision: 0
# Processed by: cddbd v1.5.2PL0 Copyright (c) Steve Scherf et al.
# Submitted via: FreeRIP 2.70 
#
DISCID=ad07e40d
DTITLE=Various Artist - Country girls meet country boys Disc 1
DYEAR=1900
DGENRE=Country
TTITLE0=Tammy Wynette - D.I.V.O.R.C.E.
TTITLE1=Dolly Parton - Release me
TTITLE2=Tammy Wynett - Stand by your man
TTITLE3=Dolly Parton - Girl left alone
TTITLE4=Tammy Wynette - Crying in the rain
TTITLE5=Dolly Parton - Little blossom
TTITLE6=Dolly Parton - It wasn't God who made honkytonk angels
TTITLE7=Tammy Wynette - Till I can make it on my own
TTITLE8=Dolly Parton - Letter to Heaven
TTITLE9=Tammy Wynette - Fairy tales
TTITLE10=Dolly Parton - Two little orphans
TTITLE11=Tammy Wynette - Womanhood
TTITLE12=Makin' believe
EXTD=Dolly Parton, Kenny Rogers, Slim Whitman, Tammy Wynette
EXTT0=
EXTT1=
EXTT2=
EXTT3=
EXTT4=
EXTT5=
EXTT6=
EXTT7=
EXTT8=
EXTT9=
EXTT10=
EXTT11=
EXTT12=
PLAYORDER=
